<svg width="32" height="32" viewBox="0 0 32 32" fill="none" xmlns="http://www.w3.org/2000/svg">
    <g clip-path="url(#clip0_7_557)">
    <path d="M15.8763 18.5223C14.8236 18.5223 13.8141 18.9405 13.0697 19.6849C12.3254 20.4292 11.9072 21.4387 11.9072 22.4914V31.787H19.8454V22.4914C19.8454 21.4387 19.4272 20.4292 18.6829 19.6849C17.9385 18.9405 16.929 18.5223 15.8763 18.5223Z" fill="#1E1E1E"/>
    <path d="M17.6465 1.10207C17.1606 0.664726 16.53 0.422729 15.8763 0.422729C15.2226 0.422729 14.592 0.664726 14.1061 1.10207L0 13.7978V27.5573C0 28.6801 0.446047 29.757 1.24002 30.5509C2.03398 31.3449 3.11084 31.7909 4.23368 31.7909H9.26117V22.4914C9.26117 20.737 9.95812 19.0544 11.1987 17.8138C12.4393 16.5732 14.1218 15.8763 15.8763 15.8763C17.6307 15.8763 19.3133 16.5732 20.5539 17.8138C21.7945 19.0544 22.4914 20.737 22.4914 22.4914V31.787H27.5189C28.6417 31.787 29.7186 31.3409 30.5126 30.5469C31.3065 29.753 31.7526 28.6761 31.7526 27.5533V13.7938L17.6465 1.10207Z" fill="#1E1E1E"/>
    </g>
    <defs>
    <clipPath id="clip0_7_557">
    <rect width="31.7526" height="31.7526" fill="white"/>
    </clipPath>
    </defs>
    </svg>
    