<svg width="145" height="145" viewBox="0 0 145 145" fill="none" xmlns="http://www.w3.org/2000/svg">
    <circle cx="72.5" cy="72.5" r="72.5" fill="url(#paint0_radial_14_8)"/>
    <path d="M74.0943 65.5132L29.4778 109.678C27.8363 111.304 27.8363 113.932 29.4778 115.541C31.1193 117.149 33.7736 117.166 35.3976 115.541L48.4595 102.606C49.7517 103.401 51.1312 104.024 52.6155 104.421C60.4387 106.531 72.61 106.825 84.4845 99.0262C86.6149 97.6255 85.4973 94.6339 82.9478 94.6339H80.1364C79.2458 94.6339 78.5298 93.9249 78.5298 93.0429C78.5298 92.334 79.0013 91.7287 79.6649 91.5212L96.7257 86.4545C97.3194 86.2816 97.8433 85.9184 98.1925 85.3996C98.9609 84.2929 99.6943 83.1689 100.393 82.0103C101.475 80.2291 100.131 78.033 98.0354 78.033H91.2949C90.4043 78.033 89.6883 77.324 89.6883 76.4421C89.6883 75.7331 90.1598 75.1278 90.8234 74.9203L104.95 70.7182C105.754 70.4761 106.417 69.8882 106.732 69.11C111.813 56.4173 114.136 43.1193 114.852 34.594C114.991 32.8821 114.328 31.2047 113.105 29.9942C111.883 28.7837 110.189 28.1266 108.46 28.265C93.8269 29.4409 65.3631 35.2339 49.4548 50.9874C35.4674 64.8388 35.3627 80.5058 37.9122 89.8611C38.2789 91.2272 40.0077 91.5212 41.0205 90.5182L69.7462 62.0892C70.8289 61.0171 72.61 61.0171 73.6927 62.0892C74.6357 63.023 74.7579 64.441 74.0769 65.5132H74.0943Z" fill="url(#paint1_linear_14_8)"/>
    <defs>
    <radialGradient id="paint0_radial_14_8" cx="0" cy="0" r="1" gradientUnits="userSpaceOnUse" gradientTransform="translate(72.5 72.5) rotate(90) scale(72.5)">
    <stop stop-color="white"/>
    <stop offset="1" stop-color="#CFD6F4"/>
    </radialGradient>
    <linearGradient id="paint1_linear_14_8" x1="3" y1="73" x2="149" y2="73" gradientUnits="userSpaceOnUse">
    <stop stop-color="#3813E4"/>
    <stop offset="1" stop-color="#AFD0EC"/>
    </linearGradient>
    </defs>
    </svg>
    