<svg width="14" height="12" viewBox="0 0 14 12" fill="none" xmlns="http://www.w3.org/2000/svg">
<path d="M2.5 3.25C2.5 2.78587 2.68437 2.34075 3.01256 2.01256C3.34075 1.68437 3.78587 1.5 4.25 1.5C4.71413 1.5 5.15925 1.68437 5.48744 2.01256C5.81563 2.34075 6 2.78587 6 3.25C6 3.71413 5.81563 4.15925 5.48744 4.48744C5.15925 4.81563 4.71413 5 4.25 5C3.78587 5 3.34075 4.81563 3.01256 4.48744C2.68437 4.15925 2.5 3.71413 2.5 3.25ZM4.25 0.5C3.52065 0.5 2.82118 0.789731 2.30546 1.30546C1.78973 1.82118 1.5 2.52065 1.5 3.25C1.5 3.97935 1.78973 4.67882 2.30546 5.19454C2.82118 5.71027 3.52065 6 4.25 6C4.97935 6 5.67882 5.71027 6.19454 5.19454C6.71027 4.67882 7 3.97935 7 3.25C7 2.52065 6.71027 1.82118 6.19454 1.30546C5.67882 0.789731 4.97935 0.5 4.25 0.5ZM9.5 4C9.5 3.73478 9.60536 3.48043 9.79289 3.29289C9.98043 3.10536 10.2348 3 10.5 3C10.7652 3 11.0196 3.10536 11.2071 3.29289C11.3946 3.48043 11.5 3.73478 11.5 4C11.5 4.26522 11.3946 4.51957 11.2071 4.70711C11.0196 4.89464 10.7652 5 10.5 5C10.2348 5 9.98043 4.89464 9.79289 4.70711C9.60536 4.51957 9.5 4.26522 9.5 4ZM10.5 2C9.96957 2 9.46086 2.21071 9.08579 2.58579C8.71071 2.96086 8.5 3.46957 8.5 4C8.5 4.53043 8.71071 5.03914 9.08579 5.41421C9.46086 5.78929 9.96957 6 10.5 6C11.0304 6 11.5391 5.78929 11.9142 5.41421C12.2893 5.03914 12.5 4.53043 12.5 4C12.5 3.46957 12.2893 2.96086 11.9142 2.58579C11.5391 2.21071 11.0304 2 10.5 2ZM0 8.5C0 8.10218 0.158035 7.72064 0.43934 7.43934C0.720644 7.15804 1.10218 7 1.5 7H7C7.39782 7 7.77936 7.15804 8.06066 7.43934C8.34196 7.72064 8.5 8.10218 8.5 8.5V8.613C8.49884 8.65963 8.4955 8.70618 8.49 8.7525C8.48 8.839 8.4615 8.9565 8.425 9.0955C8.32847 9.46201 8.15854 9.8051 7.9255 10.104C7.3405 10.855 6.24 11.5 4.25 11.5C2.26 11.5 1.16 10.855 0.5745 10.104C0.341283 9.80515 0.171179 9.46205 0.0745 9.0955C0.0365724 8.94836 0.0121379 8.79807 0.00150001 8.6465L0.000499964 8.613V8.6015L0 8.5975V8.5ZM1 8.589V8.595C1 8.60367 1.0015 8.61933 1.0045 8.642C1.0095 8.687 1.02 8.757 1.0425 8.844C1.0875 9.018 1.179 9.253 1.363 9.4895C1.7155 9.9415 2.49 10.5 4.25 10.5C6.01 10.5 6.785 9.9415 7.137 9.49C7.28614 9.29845 7.39499 9.07871 7.457 8.844C7.47831 8.76236 7.4927 8.67906 7.5 8.595L7.5005 8.589V8.5C7.5005 8.36739 7.44782 8.24021 7.35405 8.14645C7.26029 8.05268 7.13311 8 7.0005 8H1.5C1.36739 8 1.24021 8.05268 1.14645 8.14645C1.05268 8.24021 1 8.36739 1 8.5V8.589ZM8.7385 10.246C9.2035 10.404 9.782 10.5 10.5 10.5C12.1005 10.5 13.01 10.0235 13.5065 9.4375C13.748 9.1525 13.8715 8.8635 13.934 8.6415C13.9676 8.52246 13.9892 8.40035 13.9985 8.277L13.999 8.259L13.9995 8.248V8.229C13.9996 8.06763 13.9678 7.90783 13.9061 7.75872C13.8444 7.60961 13.7539 7.47413 13.6399 7.36C13.5258 7.24587 13.3903 7.15533 13.2412 7.09356C13.0922 7.03179 12.9324 7 12.771 7H8.6765C8.9265 7.2795 9.108 7.6215 9.194 8H12.771C12.896 8 12.997 8.0995 13 8.223L12.998 8.245C12.992 8.28718 12.9833 8.32893 12.972 8.37C12.941 8.48 12.877 8.634 12.7435 8.7915C12.49 9.091 11.8995 9.5 10.5 9.5C9.9175 9.5 9.4755 9.429 9.1395 9.325C9.05081 9.64968 8.91576 9.95988 8.7385 10.246Z" fill="#868686"/>
</svg>
